<svg width="25" height="24" viewBox="0 0 25 24" fill="none" xmlns="http://www.w3.org/2000/svg">
<path fill-rule="evenodd" clip-rule="evenodd" d="M5.33301 13H17.198L13.565 17.36C13.211 17.784 13.269 18.415 13.693 18.768C14.118 19.122 14.748 19.064 15.102 18.64L20.102 12.64C20.141 12.593 20.16 12.538 20.189 12.486C20.213 12.444 20.242 12.408 20.26 12.362C20.305 12.247 20.332 12.126 20.332 12.004C20.332 12.003 20.333 12.001 20.333 12C20.333 11.999 20.332 11.997 20.332 11.996C20.332 11.874 20.305 11.753 20.26 11.638C20.242 11.592 20.213 11.556 20.189 11.514C20.16 11.462 20.141 11.407 20.102 11.36L15.102 5.36C14.903 5.123 14.619 5 14.333 5C14.107 5 13.88 5.076 13.693 5.232C13.269 5.585 13.211 6.216 13.565 6.64L17.198 11H5.33301C4.78101 11 4.33301 11.448 4.33301 12C4.33301 12.552 4.78101 13 5.33301 13Z" fill="#25A59E"/>
<mask id="mask0_3065_42" style="mask-type:luminance" maskUnits="userSpaceOnUse" x="4" y="5" width="17" height="14">
<path fill-rule="evenodd" clip-rule="evenodd" d="M5.33301 13H17.198L13.565 17.36C13.211 17.784 13.269 18.415 13.693 18.768C14.118 19.122 14.748 19.064 15.102 18.64L20.102 12.64C20.141 12.593 20.16 12.538 20.189 12.486C20.213 12.444 20.242 12.408 20.26 12.362C20.305 12.247 20.332 12.126 20.332 12.004C20.332 12.003 20.333 12.001 20.333 12C20.333 11.999 20.332 11.997 20.332 11.996C20.332 11.874 20.305 11.753 20.26 11.638C20.242 11.592 20.213 11.556 20.189 11.514C20.16 11.462 20.141 11.407 20.102 11.36L15.102 5.36C14.903 5.123 14.619 5 14.333 5C14.107 5 13.88 5.076 13.693 5.232C13.269 5.585 13.211 6.216 13.565 6.64L17.198 11H5.33301C4.78101 11 4.33301 11.448 4.33301 12C4.33301 12.552 4.78101 13 5.33301 13Z" fill="white"/>
</mask>
<g mask="url(#mask0_3065_42)">
<rect x="0.333008" width="24" height="24" fill="#25A59E"/>
</g>
</svg>
