<svg width="57" height="57" viewBox="0 0 57 57" fill="none" xmlns="http://www.w3.org/2000/svg">
<path fill-rule="evenodd" clip-rule="evenodd" d="M0.0688477 28.9235C0.0688477 44.3735 12.6326 56.9312 28.0603 56.9312C43.488 56.9312 56.0517 44.3735 56.0517 28.9235C56.0517 13.5059 43.488 0.948254 28.0603 0.948254C12.6326 0.948254 0.0688477 13.5059 0.0688477 28.9235ZM38.3274 26.0903C38.6246 26.3874 39.0029 26.8465 39.0839 26.9545C39.5162 27.5216 39.7324 28.2238 39.7324 28.9232C39.7324 29.7091 39.4892 30.4382 39.0299 31.0324C38.9923 31.07 38.9186 31.1502 38.8225 31.2548C38.6428 31.4504 38.3848 31.7312 38.1383 31.9776C35.9227 34.3541 30.1407 38.2429 27.1146 39.4311C26.6553 39.6175 25.4935 40.0253 24.8721 40.0523C24.2777 40.0523 23.7103 39.9172 23.1699 39.6472C22.4944 39.2691 21.954 38.675 21.6568 37.9728C21.4677 37.4867 21.1705 36.0284 21.1705 36.0014C20.8733 34.4081 20.7112 31.8155 20.7112 28.9529C20.7112 26.2226 20.8733 23.7408 21.1165 22.1205C21.1231 22.1138 21.1464 21.9979 21.1825 21.8179C21.2923 21.2705 21.5209 20.1303 21.7649 19.6629C22.3593 18.5287 23.5211 17.8265 24.764 17.8265H24.8721C25.6826 17.8536 27.3848 18.5557 27.3848 18.5827C30.2488 19.771 35.8957 23.4707 38.1653 25.9283L38.3274 26.0903Z" fill="url(#paint0_linear_3076_75)"/>
<defs>
<linearGradient id="paint0_linear_3076_75" x1="28.0603" y1="3.18757" x2="28.0603" y2="56.9312" gradientUnits="userSpaceOnUse">
<stop stop-color="white"/>
<stop offset="1" stop-color="white" stop-opacity="0.8"/>
</linearGradient>
</defs>
</svg>
