<svg width="25" height="24" viewBox="0 0 25 24" fill="none" xmlns="http://www.w3.org/2000/svg">
<path fill-rule="evenodd" clip-rule="evenodd" d="M5.66699 13H17.532L13.899 17.36C13.545 17.784 13.603 18.415 14.027 18.768C14.452 19.122 15.082 19.064 15.436 18.64L20.436 12.64C20.475 12.593 20.494 12.538 20.523 12.486C20.547 12.444 20.576 12.408 20.594 12.362C20.639 12.247 20.666 12.126 20.666 12.004C20.666 12.003 20.667 12.001 20.667 12C20.667 11.999 20.666 11.997 20.666 11.996C20.666 11.874 20.639 11.753 20.594 11.638C20.576 11.592 20.547 11.556 20.523 11.514C20.494 11.462 20.475 11.407 20.436 11.36L15.436 5.36C15.237 5.123 14.953 5 14.667 5C14.441 5 14.214 5.076 14.027 5.232C13.603 5.585 13.545 6.216 13.899 6.64L17.532 11H5.66699C5.11499 11 4.66699 11.448 4.66699 12C4.66699 12.552 5.11499 13 5.66699 13Z" fill="white"/>
<mask id="mask0_3065_87" style="mask-type:luminance" maskUnits="userSpaceOnUse" x="4" y="5" width="17" height="14">
<path fill-rule="evenodd" clip-rule="evenodd" d="M5.66699 13H17.532L13.899 17.36C13.545 17.784 13.603 18.415 14.027 18.768C14.452 19.122 15.082 19.064 15.436 18.64L20.436 12.64C20.475 12.593 20.494 12.538 20.523 12.486C20.547 12.444 20.576 12.408 20.594 12.362C20.639 12.247 20.666 12.126 20.666 12.004C20.666 12.003 20.667 12.001 20.667 12C20.667 11.999 20.666 11.997 20.666 11.996C20.666 11.874 20.639 11.753 20.594 11.638C20.576 11.592 20.547 11.556 20.523 11.514C20.494 11.462 20.475 11.407 20.436 11.36L15.436 5.36C15.237 5.123 14.953 5 14.667 5C14.441 5 14.214 5.076 14.027 5.232C13.603 5.585 13.545 6.216 13.899 6.64L17.532 11H5.66699C5.11499 11 4.66699 11.448 4.66699 12C4.66699 12.552 5.11499 13 5.66699 13Z" fill="white"/>
</mask>
<g mask="url(#mask0_3065_87)">
<rect x="0.666992" width="24" height="24" fill="white"/>
</g>
</svg>
